<svg width="238" height="238" viewBox="0 0 238 238" fill="none" xmlns="http://www.w3.org/2000/svg">
<path fill-rule="evenodd" clip-rule="evenodd" d="M26.4444 238H211.556C226.16 238 238 226.16 238 211.556V26.4444C238 11.8396 226.16 0 211.556 0H26.4444C11.8396 0 0 11.8396 0 26.4444V211.556C0 226.16 11.8396 238 26.4444 238Z" fill="#0085A1"/>
<path d="M141.865 90.0368V89.5368H141.563C141.509 70.3259 134.837 51.656 122.459 35.8758C121.734 34.9311 120.51 34.5 119.349 34.5C118.188 34.5 116.963 34.9316 116.238 35.8775C103.812 51.9821 97.1349 70.477 97.1349 89.774V99.1391C92.6111 110.993 90.5 123.109 90.5 135.485V200.11C90.5 202.025 92.2988 203.5 94.3175 203.5H144.683C146.701 203.5 148.5 202.025 148.5 200.11V135.222C148.5 122.846 146.389 110.73 141.865 98.8764V90.0368ZM141.167 135.485V196.458H97.8333V135.222C97.8333 123.46 99.9337 111.702 104.432 100.468L104.468 100.379V100.299C104.47 100.295 104.472 100.29 104.475 100.283C104.49 100.248 104.512 100.208 104.553 100.137L104.557 100.129C104.592 100.069 104.642 99.9814 104.682 99.8889C104.724 99.7903 104.77 99.6539 104.77 99.4941V92.9011H134.23V99.4941V99.503C134.23 99.6346 134.23 99.8132 134.281 100.033C134.33 100.247 134.421 100.48 134.577 100.757C138.773 111.994 141.167 123.482 141.167 135.485ZM104.791 86.1216C105.473 71.1348 110.416 56.6495 119.349 43.6285C128.283 56.6495 133.225 71.1348 133.907 86.1216H104.791Z" fill="white" stroke="white"/>
</svg>
